<svg xmlns="http://www.w3.org/2000/svg" width="1200" height="630" viewBox="0 0 1200 630" fill="none">
  <defs>
    <linearGradient id="bg" x1="0" y1="0" x2="1200" y2="630" gradientUnits="userSpaceOnUse">
      <stop offset="0" stop-color="#0e0a1a"/>
      <stop offset="1" stop-color="#1a0f33"/>
    </linearGradient>
    <linearGradient id="accent" x1="0" y1="0" x2="0" y2="630" gradientUnits="userSpaceOnUse">
      <stop offset="0" stop-color="#a974ff"/>
      <stop offset="1" stop-color="#863bff"/>
    </linearGradient>
  </defs>
  <rect width="1200" height="630" fill="url(#bg)"/>
  <g transform="translate(96 150)">
    <path fill="url(#accent)" d="M55 95C53.6 96.8 50.7 95.8 50.7 93.5V72.2C50.7 69.6 48.6 67.5 46 67.5H22C20 67.5 18.9 65.3 20 63.7L35.9 41.4C38.2 38.2 35.9 33.8 32 33.8H2.6C0.6 33.8 -0.5 31.6 0.6 30L21 1C21.5 0.4 22.2 0 23 0H84.5C86.4 0 87.6 2.2 86.4 3.8L70.6 26.1C68.3 29.3 70.6 33.7 74.5 33.7H98.7C100.7 33.7 101.8 36 100.6 37.6L55 95Z"/>
  </g>
  <text x="220" y="225" font-family="-apple-system, Segoe UI, Roboto, Helvetica, Arial, sans-serif" font-size="92" font-weight="800" fill="#ffffff">Vector</text>
  <text x="222" y="300" font-family="-apple-system, Segoe UI, Roboto, Helvetica, Arial, sans-serif" font-size="40" font-weight="500" fill="#a974ff">raster → SVG, in your browser</text>
  <text x="96" y="430" font-family="-apple-system, Segoe UI, Roboto, Helvetica, Arial, sans-serif" font-size="56" font-weight="700" fill="#ffffff">Free Image to SVG Converter</text>
  <text x="96" y="500" font-family="-apple-system, Segoe UI, Roboto, Helvetica, Arial, sans-serif" font-size="34" font-weight="400" fill="#c9bfe0">Convert PNG · JPG · WebP · GIF · BMP to clean SVG vectors</text>
  <text x="96" y="552" font-family="-apple-system, Segoe UI, Roboto, Helvetica, Arial, sans-serif" font-size="34" font-weight="400" fill="#c9bfe0">No upload · No sign-up · No watermark</text>
</svg>
